<svg xmlns="http://www.w3.org/2000/svg" viewBox="0 0 24 24"><path d="M21 19H3V5h18c1.7 0 3 1.3 3 3v8c0 1.7-1.3 3-3 3zM5 17h16c.6 0 1-.4 1-1V8c0-.6-.4-1-1-1H5v10z"/><path d="M10 15c-1.7 0-3-1.3-3-3s1.3-3 3-3 3 1.3 3 3-1.3 3-3 3zm0-4c-.6 0-1 .4-1 1s.4 1 1 1 1-.4 1-1-.4-1-1-1zm7 4c-1.7 0-3-1.3-3-3s1.3-3 3-3 3 1.3 3 3-1.3 3-3 3zm0-4c-.6 0-1 .4-1 1s.4 1 1 1 1-.4 1-1-.4-1-1-1zM3 21V3c0-.6.4-1 1-1s1 .4 1 1v18c0 .6-.4 1-1 1s-1-.4-1-1z"/><path d="M4 4H1c-.6 0-1-.4-1-1s.4-1 1-1h3c.6 0 1 .4 1 1s-.4 1-1 1z"/></svg>