<svg xmlns="http://www.w3.org/2000/svg" viewBox="0 0 24 24"><path d="M18 10c-.6 0-1-.4-1-1V3H7v6c0 .6-.4 1-1 1s-1-.4-1-1V2c0-.6.4-1 1-1h12c.6 0 1 .4 1 1v7c0 .6-.4 1-1 1z"/><path d="M20 19h-2c-.6 0-1-.4-1-1s.4-1 1-1h2c.3 0 .5-.1.7-.3s.3-.4.3-.7v-5c0-.3-.1-.5-.3-.7-.2-.2-.4-.3-.7-.3H4c-.3 0-.5.1-.7.3-.2.2-.3.4-.3.7v5c0 .3.1.5.3.7.2.2.4.3.7.3h2c.6 0 1 .4 1 1s-.4 1-1 1H4c-.8 0-1.6-.3-2.1-.9-.6-.5-.9-1.3-.9-2.1v-5c0-.8.3-1.6.9-2.1C2.4 8.3 3.2 8 4 8h16c.8 0 1.6.3 2.1.9.6.5.9 1.3.9 2.1v5c0 .8-.3 1.6-.9 2.1s-1.3.9-2.1.9z"/><path d="M18 23H6c-.6 0-1-.4-1-1v-8c0-.6.4-1 1-1h12c.6 0 1 .4 1 1v8c0 .6-.4 1-1 1zM7 21h10v-6H7v6z"/></svg>