<svg xmlns="http://www.w3.org/2000/svg" viewBox="0 0 24 24"><path d="M21 17.5H3c-1.1 0-2-.9-2-2v-3h1.5c.3 0 .5-.2.5-.5s-.2-.5-.5-.5H1v-3c0-1.1.9-2 2-2h18c1.1 0 2 .9 2 2v3h-1.5c-.3 0-.5.2-.5.5s.2.5.5.5H23v3c0 1.1-.9 2-2 2zm-18-3v1h18v-1c-1.1-.2-2-1.2-2-2.5 0-1.2.9-2.2 2-2.4V8.5H3v1.1c1.1.2 2 1.2 2 2.4s-.9 2.2-2 2.5z"/><path d="M7 13.5v-3c0-.6.4-1 1-1s1 .4 1 1v3c0 .6-.4 1-1 1s-1-.4-1-1zm4 0v-3c0-.6.4-1 1-1s1 .4 1 1v3c0 .6-.4 1-1 1s-1-.4-1-1zm4 0v-3c0-.6.4-1 1-1s1 .4 1 1v3c0 .6-.4 1-1 1s-1-.4-1-1z"/></svg>