<svg xmlns="http://www.w3.org/2000/svg" viewBox="0 0 24 24">
	<g>
		<path d="M21,19H3V5h18c1.7,0,3,1.3,3,3v8C24,17.7,22.7,19,21,19z M5,17h16c0.6,0,1-0.4,1-1V8c0-0.6-0.4-1-1-1H5V17z"/>
		<path d="M10,15c-1.7,0-3-1.3-3-3s1.3-3,3-3s3,1.3,3,3S11.7,15,10,15z M10,11c-0.6,0-1,0.4-1,1s0.4,1,1,1s1-0.4,1-1S10.6,11,10,11z"/>
		<path d="M17,15c-1.7,0-3-1.3-3-3s1.3-3,3-3s3,1.3,3,3S18.7,15,17,15z M17,11c-0.6,0-1,0.4-1,1s0.4,1,1,1s1-0.4,1-1S17.6,11,17,11z"/>
		<path d="M3,21V3c0-0.6,0.4-1,1-1l0,0c0.6,0,1,0.4,1,1v18c0,0.6-0.4,1-1,1l0,0C3.4,22,3,21.6,3,21z"/>
		<path d="M4,4H1C0.4,4,0,3.6,0,3l0,0c0-0.6,0.4-1,1-1h3c0.6,0,1,0.4,1,1l0,0C5,3.6,4.6,4,4,4z"/>
	</g>
</svg>
