<svg xmlns="http://www.w3.org/2000/svg" viewBox="0 0 24 24">
	<g>
		<path d="M19,24H5c-1.7,0-3-1.3-3-3V3c0-1.7,1.3-3,3-3h14c1.7,0,3,1.3,3,3v18C22,22.7,20.7,24,19,24z M5,2C4.4,2,4,2.4,4,3v18c0,0.6,0.4,1,1,1h14c0.6,0,1-0.4,1-1V3c0-0.6-0.4-1-1-1H5z"/>
		<path d="M7,4h2c0.6,0,1,0.4,1,1l0,0c0,0.6-0.4,1-1,1H7C6.4,6,6,5.6,6,5l0,0C6,4.4,6.4,4,7,4z"/>
		<path d="M12,13L12,13c0.6,0,1,0.4,1,1l0,0c0,0.6-0.4,1-1,1l0,0c-0.6,0-1-0.4-1-1l0,0C11,13.4,11.4,13,12,13z"/>
		<path d="M12,20c-3.3,0-6-2.7-6-6s2.7-6,6-6s6,2.7,6,6S15.3,20,12,20z M12,10c-2.2,0-4,1.8-4,4c0,2.2,1.8,4,4,4c2.2,0,4-1.8,4-4C16,11.8,14.2,10,12,10z"/>
	</g>
</svg>
