<svg xmlns="http://www.w3.org/2000/svg" viewBox="0 0 24 24">
	<g>
		<path d="M18,10c-0.6,0-1-0.4-1-1V3H7v6c0,0.6-0.4,1-1,1S5,9.6,5,9V2c0-0.6,0.4-1,1-1h12c0.6,0,1,0.4,1,1v7C19,9.6,18.6,10,18,10z"/>
		<path d="M20,19h-2c-0.6,0-1-0.4-1-1s0.4-1,1-1h2c0.3,0,0.5-0.1,0.7-0.3S21,16.3,21,16v-5c0-0.3-0.1-0.5-0.3-0.7C20.5,10.1,20.3,10,20,10H4c-0.3,0-0.5,0.1-0.7,0.3C3.1,10.5,3,10.7,3,11v5c0,0.3,0.1,0.5,0.3,0.7C3.5,16.9,3.7,17,4,17h2c0.6,0,1,0.4,1,1s-0.4,1-1,1H4c-0.8,0-1.6-0.3-2.1-0.9C1.3,17.6,1,16.8,1,16v-5c0-0.8,0.3-1.6,0.9-2.1C2.4,8.3,3.2,8,4,8h16c0.8,0,1.6,0.3,2.1,0.9C22.7,9.4,23,10.2,23,11v5c0,0.8-0.3,1.6-0.9,2.1S20.8,19,20,19z"/>
		<path d="M18,23H6c-0.6,0-1-0.4-1-1v-8c0-0.6,0.4-1,1-1h12c0.6,0,1,0.4,1,1v8C19,22.6,18.6,23,18,23z M7,21h10v-6H7V21z"/>
	</g>
</svg>
