<svg xmlns="http://www.w3.org/2000/svg" viewBox="0 0 24 24">
	<g>
		<path d="M21,17.5H3c-1.1,0-2-0.9-2-2v-3h1.5C2.8,12.5,3,12.3,3,12s-0.2-0.5-0.5-0.5H1v-3c0-1.1,0.9-2,2-2h18c1.1,0,2,0.9,2,2v3h-1.5c-0.3,0-0.5,0.2-0.5,0.5s0.2,0.5,0.5,0.5H23v3C23,16.6,22.1,17.5,21,17.5z M3,14.5v1h18v-1c-1.1-0.2-2-1.2-2-2.5c0-1.2,0.9-2.2,2-2.4V8.5H3v1.1c1.1,0.2,2,1.2,2,2.4C5,13.2,4.1,14.2,3,14.5z"/>
		<path d="M7,13.5v-3c0-0.6,0.4-1,1-1l0,0c0.6,0,1,0.4,1,1v3c0,0.6-0.4,1-1,1l0,0C7.4,14.5,7,14.1,7,13.5z"/>
		<path d="M11,13.5v-3c0-0.6,0.4-1,1-1l0,0c0.6,0,1,0.4,1,1v3c0,0.6-0.4,1-1,1l0,0C11.4,14.5,11,14.1,11,13.5z"/>
		<path d="M15,13.5v-3c0-0.6,0.4-1,1-1l0,0c0.6,0,1,0.4,1,1v3c0,0.6-0.4,1-1,1l0,0C15.4,14.5,15,14.1,15,13.5z"/>
	</g>
</svg>
